<svg id="resonite-core" xmlns="http://www.w3.org/2000/svg" xmlns:xlink="http://www.w3.org/1999/xlink" viewBox="-64 -64 256 256" width="50" height="50" style="overflow: visible;">
    <defs>
        <style>
            .a{fill:url(#linear-gradient);}.b{fill:url(#linear-gradient-2);}.c{fill:url(#linear-gradient-3);}.d{fill:url(#linear-gradient-4);}</style>
        <linearGradient id="linear-gradient" x1="59.52" y1="120.32" x2="121.35" y2="58.49" gradientUnits="userSpaceOnUse">
            <stop offset="0.06" stop-color="#f8f546" />
            <stop offset="0.17" stop-color="#fac546" />
            <stop offset="0.36" stop-color="#fc8946" />
            <stop offset="0.53" stop-color="#ff4c63" />
            <stop offset="0.73" stop-color="#f950d6" />
            <stop offset="0.88" stop-color="#bc43ec" />
            <stop offset="0.92" stop-color="#ac40f2" />
        </linearGradient>
        <linearGradient id="linear-gradient-2" x1="4.93" y1="71.62" x2="69.65" y2="6.9" gradientUnits="userSpaceOnUse">
            <stop offset="0.13" stop-color="#70eb35" />
            <stop offset="0.39" stop-color="#62fbe0" />
            <stop offset="0.6" stop-color="#62e6fe" />
            <stop offset="0.86" stop-color="#4095f2" />
        </linearGradient>
        <linearGradient id="linear-gradient-3" x1="127.4" y1="57.03" x2="63.26" y2="120.17" gradientTransform="matrix(1, 0, 0, -1, 0, 127.89)"  gradientUnits="userSpaceOnUse">
            <stop offset="0.36" stop-color="#ab40f2" />
            <stop offset="0.44" stop-color="#7b40f2" />
            <stop offset="0.55" stop-color="#4058f2" />
            <stop offset="0.75" stop-color="#409ff2" />
        </linearGradient>
        <linearGradient id="linear-gradient-4" x1="-21.85" y1="82.83" x2="59.45" y2="17.26" gradientTransform="matrix(1, 0, 0, -1, 0, 127.89)" gradientUnits="userSpaceOnUse">
            <stop offset="0.35" stop-color="#31eb34" />
            <stop offset="0.45" stop-color="#31eb34" />
            <stop offset="0.65" stop-color="#a3eb36" />
            <stop offset="0.8" stop-color="#f8f739" />
            <stop offset="0.85" stop-color="#f8f74b" />
        </linearGradient>
        <filter id="z" x="-50%" y="-50%" width="200%" height="200%">
            <feDropShadow dx="0" dy="0" stdDeviation="7" flood-opacity="0.7"/>
        </filter>
    </defs>
    <g filter="url(#z)">
        <path class="a" d="M116.58,62.81,112,60c0-.41-.07-.81-.13-1.21l3.93-3.67a1.54,1.54,0,0,0,.46-1.42,1.56,1.56,0,0,0-1-1.14L111,51l-9.43,3.61a38.62,38.62,0,0,1,1.26,9.86c0,1.07,0,2.14-.13,3.19L97,71.27a2.86,2.86,0,0,0-.89,4l3.35,5.27a39.11,39.11,0,0,1-19.91,19.66l-5-2.6a2.86,2.86,0,0,0-3.86,1.21l-2.3,4.39a39.4,39.4,0,0,1-4.5.26A38.52,38.52,0,0,1,54,102.13l-3.4,8.74,1.75,4.67a1.54,1.54,0,0,0,2.56.51l3.43-3.67c.54.06,1.08.12,1.62.16l2.64,4.27a1.54,1.54,0,0,0,1.31.72,1.53,1.53,0,0,0,1.3-.72l2.64-4.27c.55,0,1.09-.1,1.63-.16l3.43,3.67a1.54,1.54,0,0,0,2.56-.51l1.76-4.7q.8-.23,1.56-.48l4.08,2.94a1.51,1.51,0,0,0,1.48.17,1.53,1.53,0,0,0,.93-1.17l.81-5,1.42-.76,4.59,2.09a1.5,1.5,0,0,0,1.49-.12,1.52,1.52,0,0,0,.68-1.33l-.18-5.08q.6-.48,1.2-1l5,1.17a1.54,1.54,0,0,0,1.85-1.84l-1.18-5c.32-.38.64-.77.94-1.16l5.14.19a1.46,1.46,0,0,0,1.33-.68,1.53,1.53,0,0,0,.12-1.49l-2.14-4.71.67-1.28,5.12-.84a1.53,1.53,0,0,0,1.17-.92,1.55,1.55,0,0,0-.17-1.49L110,78.82c.14-.43.27-.87.4-1.32l4.89-1.83a1.53,1.53,0,0,0,.51-2.56L112,69.5q.08-.65.12-1.29l4.51-2.79a1.53,1.53,0,0,0,.73-1.31A1.51,1.51,0,0,0,116.58,62.81ZM77.84,105.92s0,0,0,.06a1,1,0,0,1-.1.28.36.36,0,0,1,0,.09,1,1,0,0,1-.14.28,2.46,2.46,0,0,1-.22.34,1.81,1.81,0,0,1-.29.33,1.55,1.55,0,0,1-.27.24,1.31,1.31,0,0,1-.24.17,1.68,1.68,0,0,1-.34.2,3,3,0,0,1-.45.18,2.91,2.91,0,0,1-1.27.13.63.63,0,0,1-.19,0,.93.93,0,0,1-.23,0,1.81,1.81,0,0,1-.31-.09,3.32,3.32,0,0,1-.92-.51,1.43,1.43,0,0,1-.23-.2,2.41,2.41,0,0,1-.34-.37,3.06,3.06,0,0,1-.49-1,3.19,3.19,0,0,1,2.08-4,3.44,3.44,0,0,1,.89-.14,3.19,3.19,0,0,1,3.1,2.23,3.09,3.09,0,0,1,.14,1.08A3,3,0,0,1,77.84,105.92Zm28.84-30.4a3.5,3.5,0,0,1-.14.46.06.06,0,0,0,0,0c-.07.15-.14.29-.22.43a3.19,3.19,0,0,1-.26.38l-.25.27-.15.13a1.92,1.92,0,0,1-.22.18A3.27,3.27,0,0,1,104,78a3,3,0,0,1-1.08,0,3.2,3.2,0,0,1-2-1.34,3.18,3.18,0,0,1,3.34-4.87,3.18,3.18,0,0,1,2.47,2.8v0A3.06,3.06,0,0,1,106.68,75.52Z" />
        <path class="b" d="M75.45,12.69a1.56,1.56,0,0,0-1.14-1,1.54,1.54,0,0,0-1.42.46L69,16.31l-.85-.08-3-4.81a1.51,1.51,0,0,0-1.3-.73,1.53,1.53,0,0,0-1.31.73l-3,4.81-.85.08-3.86-4.13a1.53,1.53,0,0,0-2.56.51l-2,5.27-.84.25-4.58-3.29a1.58,1.58,0,0,0-1.49-.17,1.53,1.53,0,0,0-.92,1.17l-.91,5.55-.81.43-5.11-2.33a1.53,1.53,0,0,0-1.49.12A1.54,1.54,0,0,0,33.52,21l.2,5.59-.73.6-5.45-1.29a1.54,1.54,0,0,0-1.84,1.85L27,33.18l-.63.76-5.55-.19a1.55,1.55,0,0,0-1.32.68,1.5,1.5,0,0,0-.12,1.49l2.28,5c-.18.31-.35.62-.51.94l-5.42.88a1.54,1.54,0,0,0-1,2.41l3.17,4.41c-.11.36-.23.72-.33,1.09l-5.08,1.9A1.54,1.54,0,0,0,12,55.11l3.93,3.68.72.67-.84.52-4.57,2.83a1.54,1.54,0,0,0-.73,1.3,1.55,1.55,0,0,0,.73,1.31l4.52,2.8c0,.43.07.85.12,1.27L12,73.11a1.54,1.54,0,0,0,.51,2.56l4.89,1.83,8.78-3.36a39,39,0,0,1-1.23-9.72q0-1.59.12-3.15l4-2.54a2.86,2.86,0,0,0,.88-3.95l-2.56-4a39.19,39.19,0,0,1,18.8-21.06l5.29,2.77a2.86,2.86,0,0,0,3.86-1.21l2.81-5.38a37.86,37.86,0,0,1,5.77-.43,39,39,0,0,1,10,1.3l3.46-8.92ZM25.52,55.87a3.18,3.18,0,0,1-3.8,2.41,3.06,3.06,0,0,1-1-.41,2.79,2.79,0,0,1-.43-.34,1.25,1.25,0,0,1-.23-.23,3.09,3.09,0,0,1-.69-1.22.83.83,0,0,1,0-.15,2,2,0,0,1-.06-.34,2.69,2.69,0,0,1,0-.4,2.87,2.87,0,0,1,.08-.71A3.07,3.07,0,0,1,20,53.15a2.13,2.13,0,0,1,.33-.34A3.15,3.15,0,0,1,22,52h0a3.09,3.09,0,0,1,1.09,0A3.18,3.18,0,0,1,25.52,55.87ZM53.84,26.75A3.18,3.18,0,0,1,52.17,28a3.09,3.09,0,0,1-2-.05,3.16,3.16,0,0,1-2-2,3.18,3.18,0,0,1,1-3.34,2.88,2.88,0,0,1,.34-.27,2.17,2.17,0,0,1,.33-.19,2.72,2.72,0,0,1,.47-.19,3.18,3.18,0,0,1,1.33-.12l.25.05h0a.9.9,0,0,1,.22.06A3.13,3.13,0,0,1,53.76,23a3.05,3.05,0,0,1,.49,1A3.16,3.16,0,0,1,53.84,26.75Z" />
        <path class="c" d="M69,50.37,83.73,19.25A19.33,19.33,0,0,1,93.29,10a20.41,20.41,0,0,1,6.88-1.35h.28a18.49,18.49,0,0,1,13.2,5.44,18.67,18.67,0,0,1,4.08,6.15c.19.45.35.91.5,1.38a19.33,19.33,0,0,1-.5,12.85,19.31,19.31,0,0,1-9.19,9.55L77.41,58.82a6.28,6.28,0,0,1-5,.32,6.16,6.16,0,0,1-2.29-1.47h0A6.22,6.22,0,0,1,69,50.4Z" />
        <path class="d" d="M59,77.29,44.27,108.41a19.33,19.33,0,0,1-9.56,9.21A20.41,20.41,0,0,1,27.83,119h-.28a18.49,18.49,0,0,1-13.2-5.44,18.67,18.67,0,0,1-4.08-6.15c-.19-.45-.35-.91-.5-1.38a19.33,19.33,0,0,1,.5-12.85,19.31,19.31,0,0,1,9.19-9.55L50.59,68.84a6.28,6.28,0,0,1,5-.32A6.16,6.16,0,0,1,57.86,70h0A6.22,6.22,0,0,1,59,77.26Z" />
    </g>
</svg>